<?xml version="1.0" encoding="UTF-8" standalone="no"?>
<!-- Created with Inkscape (http://www.inkscape.org/) -->

<svg
   xmlns:dc="http://purl.org/dc/elements/1.1/"
   xmlns:cc="http://creativecommons.org/ns#"
   xmlns:rdf="http://www.w3.org/1999/02/22-rdf-syntax-ns#"
   xmlns:svg="http://www.w3.org/2000/svg"
   xmlns="http://www.w3.org/2000/svg"
   xmlns:sodipodi="http://sodipodi.sourceforge.net/DTD/sodipodi-0.dtd"
   xmlns:inkscape="http://www.inkscape.org/namespaces/inkscape"
   version="1.1"
   id="svg2"
   xml:space="preserve"
   width="1056"
   height="1056"
   viewBox="0 0 1056 1056"
   sodipodi:docname="logo.svg"
   inkscape:version="0.92.1 r"
   inkscape:export-filename="/home/jack/Projects/Hausgold/Docker/docker-elasticsearch/docs/assets/logo.png"
   inkscape:export-xdpi="45.454544"
   inkscape:export-ydpi="45.454544"><metadata
     id="metadata8"><rdf:RDF><cc:Work
         rdf:about=""><dc:format>image/svg+xml</dc:format><dc:type
           rdf:resource="http://purl.org/dc/dcmitype/StillImage" /><dc:title /></cc:Work></rdf:RDF></metadata><defs
     id="defs6"><clipPath
       clipPathUnits="userSpaceOnUse"
       id="clipPath18"><path
         d="M 0,612 H 792 V 0 H 0 Z"
         id="path16"
         inkscape:connector-curvature="0" /></clipPath></defs><sodipodi:namedview
     pagecolor="#ffffff"
     bordercolor="#666666"
     borderopacity="1"
     objecttolerance="10"
     gridtolerance="10"
     guidetolerance="10"
     inkscape:pageopacity="0"
     inkscape:pageshadow="2"
     inkscape:window-width="1434"
     inkscape:window-height="1734"
     id="namedview4"
     showgrid="false"
     inkscape:zoom="0.28921569"
     inkscape:cx="-2151.661"
     inkscape:cy="408"
     inkscape:window-x="1440"
     inkscape:window-y="63"
     inkscape:window-maximized="0"
     inkscape:current-layer="g10" /><g
     id="g10"
     inkscape:groupmode="layer"
     inkscape:label="elastic-logo-H-full color"
     transform="matrix(1.3333333,0,0,-1.3333333,0,1056)"><g
       id="g12"
       transform="matrix(3.2800144,0,0,3.2800144,-163.37102,-607.68406)"><g
         id="g14"
         clip-path="url(#clipPath18)"><g
           id="g20"
           transform="translate(288.8257,300.3644)"><path
             d="m 0,0 c 0,19.828 -12.294,37.162 -30.794,43.906 0.814,4.18 1.238,8.359 1.238,12.712 0,36.857 -29.986,66.843 -66.849,66.843 -21.531,0 -41.562,-10.326 -54.149,-27.726 -6.188,4.802 -13.788,7.432 -21.717,7.432 -19.564,0 -35.481,-15.916 -35.481,-35.481 0,-4.323 0.771,-8.461 2.218,-12.365 -18.392,-6.637 -31.039,-24.378 -31.039,-44.08 0,-19.929 12.354,-37.341 30.938,-44.038 -0.79,-4.131 -1.22,-8.395 -1.22,-12.706 0,-36.773 29.915,-66.687 66.687,-66.687 21.586,0 41.605,10.368 54.119,27.84 6.231,-4.892 13.849,-7.576 21.747,-7.576 19.565,0 35.482,15.911 35.482,35.475 0,4.323 -0.772,8.467 -2.219,12.371 C -12.646,-37.449 0,-19.702 0,0"
             style="fill:#ffffff;fill-opacity:1;fill-rule:nonzero;stroke:none"
             id="path22"
             inkscape:connector-curvature="0" /></g><g
           id="g24"
           transform="translate(145.2624,322.3361)"><path
             d="m 0,0 51.765,-23.599 52.228,45.762 c 0.756,3.775 1.126,7.539 1.126,11.478 0,32.198 -26.191,58.394 -58.389,58.394 -19.262,0 -37.228,-9.484 -48.149,-25.387 l -8.687,-45.071 z"
             style="fill:#fdd10b;fill-opacity:1;fill-rule:nonzero;stroke:none"
             id="path26"
             inkscape:connector-curvature="0" /></g><g
           id="g28"
           transform="translate(91.679,267.5189)"><path
             d="m 0,0 c -0.756,-3.775 -1.143,-7.691 -1.143,-11.653 0,-32.281 26.267,-58.547 58.553,-58.547 19.42,0 37.474,9.572 48.377,25.639 l 8.623,44.918 -11.507,21.988 -51.97,23.687 z"
             style="fill:#24bbb1;fill-opacity:1;fill-rule:nonzero;stroke:none"
             id="path30"
             inkscape:connector-curvature="0" /></g><g
           id="g32"
           transform="translate(91.3512,357.1021)"><path
             d="m 0,0 35.475,-8.376 7.773,40.334 C 38.4,35.663 32.416,37.691 26.261,37.691 10.844,37.691 -1.694,25.147 -1.694,9.731 -1.694,6.325 -1.125,3.06 0,0"
             style="fill:#ef5098;fill-opacity:1;fill-rule:nonzero;stroke:none"
             id="path34"
             inkscape:connector-curvature="0" /></g><g
           id="g36"
           transform="translate(88.2715,348.6529)"><path
             d="m 0,0 c -15.85,-5.252 -26.87,-20.446 -26.87,-37.158 0,-16.272 10.064,-30.803 25.17,-36.553 l 49.772,44.988 -9.138,19.526 z"
             style="fill:#18a8e0;fill-opacity:1;fill-rule:nonzero;stroke:none"
             id="path38"
             inkscape:connector-curvature="0" /></g><g
           id="g40"
           transform="translate(206.5657,222.959)"><path
             d="m 0,0 c 4.865,-3.74 10.821,-5.78 16.9,-5.78 15.416,0 27.954,12.539 27.954,27.955 0,3.4 -0.568,6.665 -1.694,9.725 L 7.714,40.194 Z"
             style="fill:#92c83e;fill-opacity:1;fill-rule:nonzero;stroke:none"
             id="path42"
             inkscape:connector-curvature="0" /></g><g
           id="g44"
           transform="translate(213.778,272.4445)"><path
             d="m 0,0 39.022,-9.127 c 15.856,5.24 26.876,20.44 26.876,37.158 0,16.243 -10.088,30.756 -25.223,36.489 L -10.364,19.807 Z"
             style="fill:#0479a1;fill-opacity:1;fill-rule:nonzero;stroke:none"
             id="path46"
             inkscape:connector-curvature="0" /></g><g
           id="g48"
           transform="translate(378.6248,293.6461)" /><g
           id="g54"
           transform="translate(446.9051,271.8043)" /><g
           id="g58"
           transform="translate(544.8231,320.3785)" /><g
           id="g62"
           transform="translate(635.2435,319.0748)" /><g
           id="g68"
           transform="translate(717.4158,331.2994)" /></g></g></g></svg>